<svg width="24" height="24" viewBox="0 0 24 24" fill="none" xmlns="http://www.w3.org/2000/svg">
<g id="password-02">
<path id="Icon" d="M6.52928 9.30247H6.66931M12.0004 9.30247H12.1404M17.3299 9.30247H17.4699M11.4004 14.7025H4.53372C3.35552 14.7025 2.40039 13.7473 2.40039 12.5691V6.0358C2.40039 4.85759 3.35552 3.90247 4.53372 3.90247H19.4671C20.6453 3.90247 21.6004 4.85759 21.6004 6.0358V9.30247M15.4116 13.5975L16.8016 12.9025C17.8151 12.3958 19.0081 12.3958 20.0216 12.9025L21.4116 13.5975C21.4116 13.5975 21.4116 15.7875 21.4116 16.9425C21.4116 18.0975 20.3439 18.8772 18.4116 20.0975C16.4792 18.8772 15.4116 17.8475 15.4116 16.9425V13.5975Z" stroke="#8E433E" stroke-width="1.5" stroke-linecap="round" stroke-linejoin="round"/>
</g>
</svg>
